<?xml version="1.0" encoding="UTF-8"?>
<svg width="20px" height="20px" viewBox="0 0 20 20" version="1.1" xmlns="http://www.w3.org/2000/svg" xmlns:xlink="http://www.w3.org/1999/xlink">
    <!-- Generator: Sketch 58 (84663) - https://sketch.com -->
    <title>icon_good01</title>
    <desc>Created with Sketch.</desc>
    <g id="首頁" stroke="none" stroke-width="1" fill="none" fill-rule="evenodd">
        <g id="專案介紹-mobile" transform="translate(-12.000000, -587.000000)" fill-rule="nonzero">
            <g id="product-sm" transform="translate(0.000000, 65.000000)">
                <g id="product_info">
                    <g transform="translate(12.000000, 357.000000)">
                        <g id="icon_good-group" transform="translate(0.000000, 165.000000)">
                            <g id="icon_good01">
                                <g>
                                    <path d="M6.66666667,8 C6.66666667,9.7673112 8.15905083,11.2 10,11.2 C11.8409492,11.2 13.3333333,9.7673112 13.3333333,8 C13.3333333,6.2326888 11.8409492,4.8 10,4.8 C8.15905083,4.8 6.66666667,6.2326888 6.66666667,8 Z" id="Path" fill="#FFDF65"></path>
                                    <path d="M10,12 C7.7031159,12 5.83333333,10.2050087 5.83333333,8 C5.83333333,5.79382644 7.7031159,4 10,4 C12.2980975,4 14.1666667,5.79499126 14.1666667,8 C14.1666667,10.2050087 12.2980975,12 10,12 Z M10,5.39778684 C8.50514463,5.39778684 7.28936129,6.56493885 7.28936129,8 C7.28936129,9.43506115 8.50514463,10.6022132 10,10.6022132 C11.4948554,10.6022132 12.7106387,9.43506115 12.7106387,8 C12.7106387,6.56493885 11.4948554,5.39778684 10,5.39778684 Z" id="Shape" fill="#636057"></path>
                                    <path d="M19.8411143,18.2222474 L16.7220523,12.8163821 C17.6864612,11.4878893 18.2568106,9.86442793 18.2568106,8.11049974 C18.2568106,3.63832322 14.5616381,0 10.0195832,0 C5.47752829,0 1.78235578,3.63832322 1.78235578,8.11049974 C1.78235578,9.850814 2.34463959,11.4640649 3.29637408,12.7868852 L0.160028721,18.2222474 C-0.0554365923,18.5943616 -0.0531321504,19.0379488 0.165789825,19.4089285 C0.384711801,19.7787736 0.775314694,20 1.2108542,20 L6.70810023,20 C7.24849185,20 7.74625129,19.710704 8.00665322,19.2432923 L9.69811353,16.2119235 C9.80411786,16.2164615 9.91012218,16.219865 10.018431,16.219865 C10.1129131,16.219865 10.206243,16.2164615 10.3007251,16.213058 L11.9921854,19.2432923 C12.2525873,19.7095695 12.7503468,20 13.2907384,20 L18.7879844,20 C19.2235239,20 19.6141268,19.7787736 19.8330488,19.4089285 C20.053123,19.0390833 20.0554274,18.5954961 19.8411143,18.2222474 L19.8411143,18.2222474 Z M10.0195832,1.36139316 C13.7988678,1.36139316 16.8741455,4.38935844 16.8741455,8.11049974 C16.8741455,9.73736457 16.2865128,11.2326281 15.3082772,12.3988882 C15.3059728,12.4022917 15.3025161,12.4056952 15.3002117,12.4090986 C15.1629698,12.572982 15.0176139,12.7301107 14.8646722,12.8799138 L14.8519977,12.8923932 C14.7794078,12.9627319 14.7056657,13.031936 14.6307713,13.1000057 C14.5627903,13.1601339 14.4948092,13.2191276 14.4245238,13.2758523 C14.4118493,13.2860627 14.4003271,13.2974077 14.3876527,13.3076181 C13.3264572,14.1698338 12.0140776,14.7109876 10.6348691,14.831244 L10.6337169,14.831244 C10.430926,14.8493959 10.2258307,14.8596063 10.018431,14.8596063 C9.79950897,14.8596063 9.58289144,14.8482614 9.36857835,14.828975 C7.99397879,14.7019116 6.68736026,14.1573544 5.63192589,13.2928697 C5.61003369,13.2747178 5.5881415,13.2554314 5.5662493,13.2372795 C5.50633381,13.1873617 5.44757054,13.1363095 5.38880728,13.0841228 C5.34271844,13.0421465 5.29778182,12.9990357 5.25169299,12.9559249 L5.15490643,12.8640309 C5.09959982,12.8095751 5.04659766,12.7528504 4.99244328,12.6961257 C4.9717033,12.6745703 4.95096332,12.6518804 4.93022335,12.630325 C4.87491674,12.5690623 4.82076236,12.5077996 4.76660798,12.444268 L4.71245359,12.3807363 C3.7434358,11.2167451 3.16156423,9.72942311 3.16156423,8.11049974 C3.16502089,4.38935844 6.24029854,1.36139316 10.0195832,1.36139316 L10.0195832,1.36139316 Z M8.22672741,16.024732 L6.79566902,18.5875546 C6.77838571,18.6193204 6.7449713,18.6386068 6.70810023,18.6386068 L1.51043164,18.6386068 L4.24810856,13.8918827 C4.32530736,13.9656248 4.40365839,14.0382325 4.48316163,14.1085711 C4.48546607,14.1108401 4.48777051,14.1119746 4.48892273,14.1142436 C4.57073042,14.1868512 4.65369033,14.2571899 4.73665023,14.326394 C4.77006464,14.3547564 4.80463127,14.3819842 4.83919789,14.4092121 C4.88874339,14.4489194 4.93944112,14.4874922 4.99013884,14.526065 C5.93778711,15.2480465 7.03411912,15.7575789 8.20253077,16.0190595 C8.21174854,16.0213285 8.21866187,16.0235975 8.22672741,16.024732 L8.22672741,16.024732 Z M13.2918906,18.6397413 C13.2561717,18.6397413 13.2227573,18.6204549 13.205474,18.5886891 L11.7790245,16.0326734 C12.8798954,15.7954824 13.9193089,15.3374526 14.83241,14.6871632 C14.8543022,14.6724148 14.8761944,14.6576663 14.8969343,14.6417834 C14.941871,14.6100176 14.9856554,14.5759828 15.0294398,14.5430824 C15.088203,14.4988371 15.1469663,14.4534574 15.2045773,14.4069431 C15.2322306,14.3853877 15.2598839,14.3638323 15.286385,14.3411424 C15.4523048,14.2061376 15.6124635,14.0643258 15.7680134,13.9168416 L18.4918636,18.6386068 L13.2918906,18.6386068 L13.2918906,18.6397413 Z" id="Shape" fill="#636057"></path>
                                </g>
                            </g>
                        </g>
                    </g>
                </g>
            </g>
        </g>
    </g>
</svg>