<?xml version="1.0" encoding="UTF-8"?>
<svg width="18px" height="20px" viewBox="0 0 18 20" version="1.1" xmlns="http://www.w3.org/2000/svg" xmlns:xlink="http://www.w3.org/1999/xlink">
    <!-- Generator: Sketch 58 (84663) - https://sketch.com -->
    <title>icon_good03</title>
    <desc>Created with Sketch.</desc>
    <g id="首頁" stroke="none" stroke-width="1" fill="none" fill-rule="evenodd">
        <g id="專案介紹-mobile" transform="translate(-194.000000, -587.000000)" fill-rule="nonzero">
            <g id="product-sm" transform="translate(0.000000, 65.000000)">
                <g id="product_info">
                    <g transform="translate(12.000000, 357.000000)">
                        <g id="icon_good-group" transform="translate(0.000000, 165.000000)">
                            <g id="icon_good03">
                                <g transform="translate(182.833333, 0.000000)">
                                    <path d="M13.4141705,3.2 C13.4141705,3.2 14.4699065,9.90619513 10.7742562,12.2859962 C7.07860591,14.6657972 2.98662383,12.6907784 1.66666667,11.4138952 C3.59433257,14.1188864 4.4938334,14.7931444 4.4938334,14.7931444 L4.71784702,16.8 L11.7415355,16.8 L11.9322343,14.579383 C11.9322343,14.579383 19.6176246,9.97896497 13.4141705,3.2 Z" id="Path" fill="#FFDF65"></path>
                                    <path d="M14.1831599,2.34371456 C12.5810108,0.800673828 10.4561416,-0.0344239405 8.20938249,0.0010877616 C6.06107292,0.0320173086 4.02762114,0.869406155 2.48407302,2.3597521 C0.940524894,3.85009805 0.0591671194,5.82729798 0.00291024017,7.92592502 C-0.0732709504,10.7382227 1.3507313,13.3958727 3.74047665,14.9412045 L3.74047665,16.9126767 C3.74047665,17.2918501 4.05574958,17.6 4.44368764,17.6 L12.2235452,17.6 C12.6114833,17.6 12.9267562,17.2918501 12.9267562,16.9126767 L12.9267562,14.9412045 C15.2438364,13.4405487 16.6666667,10.8722508 16.6666667,8.14586847 C16.6666667,5.94757956 15.7853089,3.88790083 14.1831599,2.34371456 Z M11.8649076,13.9709332 C11.6513776,14.0947289 11.5204247,14.319372 11.5203342,14.5620312 L11.5203342,16.2253535 L5.14689863,16.2253535 L5.14689863,14.6135804 C5.14689863,14.3420877 4.99922432,14.0866326 4.76130461,13.9468768 C2.62823127,12.6890753 1.34252718,10.3957066 1.40933222,7.96258227 C1.50543772,4.38277359 4.56557755,1.42842908 8.23047882,1.37573429 C10.1033641,1.35167798 11.8649076,2.04129232 13.1963204,3.32315022 C14.5277332,4.60615365 15.2614167,6.31873412 15.2614167,8.14586847 C15.2602447,10.5228614 13.9593044,12.754371 11.8649076,13.9709332 L11.8649076,13.9709332 Z" id="Shape" fill="#636057"></path>
                                    <path d="M4.14454804,6.52065268 C4.1457648,6.51607137 4.14819831,6.51149007 4.14941506,6.50805409 C4.27717426,6.13009635 4.05937524,5.80138765 3.7807385,5.67082043 C3.45726729,5.52075238 3.06584528,5.61566204 2.85965547,5.8941591 C2.82801986,5.9376815 2.79516749,6.00525577 2.76231513,6.0934459 L2.75866486,6.09230058 L2.76231513,6.0934459 L2.76231513,6.09459123 L2.75866486,6.0934459 C2.75136434,6.11520711 2.74528057,6.13696831 2.74041355,6.15987484 C2.60657057,6.56875639 2.48976216,7.30634664 2.50071295,7.97292665 C2.52504803,9.4022941 3.05798643,10.6243575 4.04355743,11.5051135 C4.18386883,11.6306881 4.37146693,11.6985945 4.56501083,11.693868 C4.75855473,11.6891416 4.94215981,11.6121703 5.0753651,11.4799163 C5.35278509,11.205038 5.3418343,10.7698139 5.04981326,10.5086795 C3.41692896,9.04953354 4.07762655,6.74055536 4.14454804,6.52065268 L4.14454804,6.52065268 Z M11.7699474,18.6256082 L4.12873024,18.6256082 C3.72598455,18.6256082 3.39867764,18.933701 3.39867764,19.3128041 C3.39867764,19.6919072 3.72598455,20 4.12873024,20 L11.7699474,20 C12.1726931,20 12.5,19.6919072 12.5,19.3128041 C12.5,18.933701 12.1739098,18.6256082 11.7699474,18.6256082 L11.7699474,18.6256082 Z" id="Shape" fill="#636057"></path>
                                </g>
                            </g>
                        </g>
                    </g>
                </g>
            </g>
        </g>
    </g>
</svg>