<?xml version="1.0" encoding="UTF-8"?>
<svg width="21px" height="20px" viewBox="0 0 21 20" version="1.1" xmlns="http://www.w3.org/2000/svg" xmlns:xlink="http://www.w3.org/1999/xlink">
    <!-- Generator: Sketch 58 (84663) - https://sketch.com -->
    <title>icon_good02</title>
    <desc>Created with Sketch.</desc>
    <g id="首頁" stroke="none" stroke-width="1" fill="none" fill-rule="evenodd">
        <g id="專案介紹-mobile" transform="translate(-103.000000, -587.000000)" fill-rule="nonzero">
            <g id="product-sm" transform="translate(0.000000, 65.000000)">
                <g id="product_info">
                    <g transform="translate(12.000000, 357.000000)">
                        <g id="icon_good-group" transform="translate(0.000000, 165.000000)">
                            <g id="icon_good02">
                                <g transform="translate(91.000000, 0.000000)">
                                    <path d="M2.55460255,18.4 L5,18.4 L5,8 L2.55460255,8 C1.60433071,8 0.833333333,8.71559134 0.833333333,9.59757398 L0.833333333,16.8035135 C0.833333333,17.6854962 1.60433071,18.4 2.55460255,18.4 Z" id="Path" fill="#FFDF65"></path>
                                    <path d="M20.3153373,7.88502717 C19.8267091,7.25470874 19.0789778,6.89305063 18.2661751,6.89305063 L14.2281897,6.89305063 C14.1572026,6.89305063 14.1193428,6.85057015 14.101596,6.82531149 C14.0755674,6.78627537 14.072018,6.74609114 14.0909479,6.70705502 C15.075303,4.64388158 14.6647607,2.9997723 14.3323042,2.20412445 C13.93241,1.24773965 13.2532996,0.530164026 12.4665255,0.23739317 C11.6099473,-0.0817844689 10.8255393,-0.0794882269 10.1357809,0.246578138 C9.0662413,0.750603258 8.27355154,1.9664634 7.56722946,4.18692942 C7.26316787,5.14101798 6.50242231,5.96651698 5.30628895,6.64276025 C5.0164642,6.80671793 4.68698822,6.89308853 4.35151188,6.89305063 L2.56500211,6.89305063 C1.15117484,6.89305063 0,8.00902424 0,9.38217696 L0,17.5108737 C0,18.8828783 1.14999172,20 2.56500211,20 L15.860894,20 C16.9978714,20 18.0118045,19.259462 18.325331,18.1985981 L20.7317952,10.0699014 C20.9565878,9.31214158 20.8039654,8.5153456 20.3153373,7.88502717 Z M1.41974286,17.5120218 L1.41974286,9.38332508 C1.41974286,8.77022847 1.93321653,8.27194395 2.56500211,8.27194395 L4.25922859,8.27194395 L4.25922859,18.4856284 C4.25922859,18.5327014 4.26396107,18.5786262 4.27342602,18.6234029 L2.56500211,18.6234029 C1.93321653,18.6234029 1.41974286,18.1251184 1.41974286,17.5120218 Z M19.3676589,9.68987339 L16.9611947,17.8185701 C16.8204036,18.2915959 16.3684521,18.6222548 15.860894,18.6222548 L5.66359091,18.6222548 C5.67305586,18.5774781 5.67778833,18.5315532 5.67778833,18.4844803 L5.67778833,8.19387172 C5.67778833,8.13072507 5.66832338,8.06987465 5.65175972,8.0124686 C5.77835345,7.95965504 5.90139784,7.90110087 6.02089286,7.83336173 C7.53528525,6.97801158 8.51254158,5.88729663 8.92426702,4.59336426 C9.48151609,2.84133161 10.0979211,1.79539337 10.7569184,1.4854007 C10.9651474,1.38666229 11.3165337,1.28447953 11.9577843,1.52328869 C12.3659603,1.67598879 12.7729533,2.13523719 13.0178589,2.72192702 C13.2639477,3.3109131 13.5632768,4.53710633 12.8037144,6.12840204 C12.581288,6.59453917 12.6203309,7.13185979 12.9066457,7.56699766 C13.1965099,8.00787612 13.6910537,8.27079583 14.2293728,8.27079583 L18.2673582,8.27079583 C18.6305757,8.27079583 18.9630322,8.43268089 19.1819092,8.71397054 C19.3989599,8.99263956 19.4678063,9.35434913 19.3676589,9.68987339 L19.3676589,9.68987339 Z" id="Shape" fill="#636057"></path>
                                </g>
                            </g>
                        </g>
                    </g>
                </g>
            </g>
        </g>
    </g>
</svg>