<?xml version="1.0" encoding="UTF-8"?>
<svg width="21px" height="20px" viewBox="0 0 21 20" version="1.1" xmlns="http://www.w3.org/2000/svg" xmlns:xlink="http://www.w3.org/1999/xlink">
    <!-- Generator: Sketch 58 (84663) - https://sketch.com -->
    <title>icon_good04</title>
    <desc>Created with Sketch.</desc>
    <g id="首頁" stroke="none" stroke-width="1" fill="none" fill-rule="evenodd">
        <g id="專案介紹-mobile" transform="translate(-282.000000, -587.000000)" fill-rule="nonzero">
            <g id="product-sm" transform="translate(0.000000, 65.000000)">
                <g id="product_info">
                    <g transform="translate(12.000000, 357.000000)">
                        <g id="icon_good-group" transform="translate(0.000000, 165.000000)">
                            <g id="icon_good04">
                                <g transform="translate(270.500000, 0.800000)">
                                    <path d="M15.1054436,14.4 L5.01080269,14.4 C3.88708844,14.4 2.90545301,13.6943104 2.62246959,12.6827492 L1.66666667,9.6 L18.3333333,9.6 L17.512564,12.6139281 C17.2554131,13.6593537 16.2573388,14.4 15.1054436,14.4 Z" id="Path" fill="#FFDF65"></path>
                                    <path d="M19.3654113,3.47461089 C18.8678251,3.14907588 18.2282363,3.15466926 17.7364226,3.48803502 L15.2635,5.16605058 C15.2415647,5.18171206 15.2103934,5.17723735 15.193076,5.15710117 L11.1084821,0.492217899 C10.8348674,0.180107004 10.4354131,0 10.0117144,0 L10.0094054,0 C9.58570672,0.00111867704 9.18509788,0.181225681 8.91263769,0.49557393 L4.88576844,5.12689689 C4.86845106,5.1459144 4.83843426,5.15038911 4.8164989,5.13696498 L2.22581811,3.49586576 C1.73515887,3.18487354 1.10596055,3.19270428 0.623382754,3.51488327 C0.141553903,3.83442941 -0.0918600364,4.40539413 0.0334371725,4.95797665 L1.92103213,13.3928016 C2.11729583,14.270963 2.93352191,14.9097276 3.86173374,14.9097276 L16.0150745,14.9097276 C16.9455953,14.9097276 17.742195,14.2955739 17.9500037,13.4174125 L19.9622838,4.94343385 C20.0973594,4.37626459 19.8629975,3.79902724 19.3654113,3.47461089 Z M18.6126823,4.64139105 L16.5992476,13.1153696 C16.5374852,13.3801156 16.294032,13.5676264 16.01392,13.5662046 L3.86173374,13.5662046 C3.58119211,13.5662046 3.33413075,13.373784 3.27525164,13.1075389 L1.38765668,4.67271401 C1.3841932,4.65593385 1.38072972,4.6391537 1.40959203,4.62013619 C1.42229145,4.61230545 1.43152739,4.60894942 1.44076332,4.60894942 C1.45230825,4.60894942 1.46038969,4.6145428 1.46847114,4.61901751 L4.05799744,6.26011673 C4.66526041,6.64494163 5.47686851,6.5297179 5.94443791,5.99163424 L9.97130716,1.36142996 C9.97592513,1.35695525 9.98747005,1.34353113 10.0117144,1.34353113 C10.0359587,1.34353113 10.0475037,1.35695525 10.0521216,1.36142996 L14.1367155,6.02631323 C14.6204478,6.57782101 15.4459098,6.68185798 16.0577907,6.26682879 L18.5307133,4.58881323 C18.5457217,4.57874514 18.5595756,4.56867704 18.5907469,4.58881323 C18.6207637,4.60671206 18.6173002,4.62349222 18.6126823,4.64139105 Z M17.2757801,17.0575875 L2.72686778,17.0575875 C2.34473082,17.0575875 2.03417238,17.3585117 2.03417238,17.7287938 C2.03417238,18.0990759 2.34473082,18.4 2.72686778,18.4 L17.2746256,18.4 C17.6567626,18.4 17.967321,18.0990759 17.967321,17.7287938 C17.967321,17.3585117 17.6579171,17.0575875 17.2757801,17.0575875 Z" id="Shape" fill="#636057"></path>
                                </g>
                            </g>
                        </g>
                    </g>
                </g>
            </g>
        </g>
    </g>
</svg>